<svg width="18" height="18" viewBox="0 0 18 18" fill="none" xmlns="http://www.w3.org/2000/svg">
<g clip-path="url(#clip0_2546_3897)">
<path d="M9 0C6.61575 0.00830044 4.33169 0.959838 2.64675 2.64675L0.75 0.75V5.18175C0.749901 5.28923 0.770999 5.39568 0.812085 5.495C0.853171 5.59432 0.913439 5.68456 0.98944 5.76056C1.06544 5.83656 1.15568 5.89683 1.255 5.93791C1.35432 5.979 1.46077 6.0001 1.56825 6H6L4.23525 4.23525C5.34018 3.13564 6.79217 2.45312 8.34387 2.30394C9.89557 2.15476 11.451 2.54817 12.7452 3.41713C14.0394 4.28609 14.9923 5.57687 15.4415 7.06957C15.8908 8.56227 15.8087 10.1646 15.2092 11.6035C14.6096 13.0425 13.5297 14.2291 12.1535 14.9611C10.7772 15.6932 9.18974 15.9255 7.66143 15.6185C6.13312 15.3115 4.75852 14.4841 3.7718 13.2772C2.78508 12.0704 2.24728 10.5588 2.25 9H0C0 10.78 0.527841 12.5201 1.51677 14.0001C2.50571 15.4802 3.91131 16.6337 5.55585 17.3149C7.20038 17.9961 9.00998 18.1743 10.7558 17.8271C12.5016 17.4798 14.1053 16.6226 15.364 15.364C16.6226 14.1053 17.4798 12.5016 17.8271 10.7558C18.1743 9.00998 17.9961 7.20038 17.3149 5.55585C16.6337 3.91131 15.4802 2.50571 14.0001 1.51677C12.5201 0.527841 10.78 0 9 0Z" fill="white"/>
<path d="M7.5 5.25V10.2158L10.0792 12.7958L11.6707 11.2043L9.75 9.28425V5.25H7.5Z" fill="white"/>
</g>
<defs>
<clipPath id="clip0_2546_3897">
<rect width="18" height="18" fill="white"/>
</clipPath>
</defs>
</svg>
