<svg width="18" height="18" viewBox="0 0 18 18" fill="none" xmlns="http://www.w3.org/2000/svg">
<g clip-path="url(#clip0_2546_3871)">
<path fill-rule="evenodd" clip-rule="evenodd" d="M8.99902 6C11.027 6 11.999 6.97205 11.999 9C11.999 11.028 11.027 11.7 8.99902 11.7C6.97107 11.7 5.99902 11.028 5.99902 9C5.99902 6.97205 6.97107 6 8.99902 6ZM10.5799 2.2551V0H7.41808V2.2551C6.67495 2.4287 5.97784 2.72197 5.34815 3.11344L3.7529 1.51819L1.51718 3.75391L3.11243 5.34916C2.72103 5.97892 2.42762 6.67593 2.25409 7.41913H-0.000976562V10.5809H2.25412C2.42772 11.324 2.721 12.0212 3.11246 12.6509L1.51721 14.2461L3.75294 16.4818L5.34819 14.8866C5.97798 15.278 6.67495 15.5714 7.41815 15.7449V18H10.58V15.7449C11.3231 15.5713 12.0201 15.278 12.6499 14.8866L14.2452 16.4818L16.4809 14.2461L14.8857 12.6508C15.2771 12.0211 15.5704 11.324 15.744 10.5809H17.999V7.41909H15.7439C15.5703 6.67596 15.2771 5.97885 14.8856 5.34913L16.4808 3.75388L14.2451 1.51815L12.6499 3.1134C12.0201 2.72201 11.3231 2.42859 10.5799 2.2551Z" fill="white"/>
</g>
<defs>
<clipPath id="clip0_2546_3871">
<rect width="18" height="18" fill="white"/>
</clipPath>
</defs>
</svg>
