<svg width="18" height="18" viewBox="0 0 18 18" fill="none" xmlns="http://www.w3.org/2000/svg">
<g clip-path="url(#clip0_2546_3888)">
<path d="M9.001 0C4.03208 0 0.000976562 4.02602 0.000976562 8.99527C0.000976562 13.9693 4.03208 18 9.00095 18C13.9726 18 18.0003 13.9692 18.0003 8.99527C18.0003 4.02602 13.9726 0 9.001 0ZM9.64234 14.0031C9.43331 14.1891 9.19106 14.2826 8.91664 14.2826C8.63271 14.2826 8.38504 14.1908 8.17364 14.0068C7.9619 13.8232 7.85582 13.5661 7.85582 13.2357C7.85582 12.9426 7.95848 12.696 8.16313 12.4961C8.36778 12.2962 8.61883 12.1962 8.91664 12.1962C9.20969 12.1962 9.45636 12.2962 9.65659 12.4961C9.85649 12.696 9.95678 12.9426 9.95678 13.2357C9.9564 13.5613 9.8517 13.8171 9.64234 14.0031ZM12.2488 7.54145C12.0882 7.83926 11.8974 8.09605 11.6762 8.31258C11.4556 8.52907 11.0589 8.89294 10.4863 9.40453C10.3284 9.54887 10.2014 9.67558 10.1062 9.78466C10.011 9.89411 9.93981 9.99402 9.89338 10.0848C9.84661 10.1756 9.81073 10.2664 9.7853 10.3572C9.75988 10.4477 9.72161 10.6073 9.66976 10.8353C9.58169 11.3191 9.30489 11.561 8.83969 11.561C8.59778 11.561 8.3945 11.482 8.22882 11.3238C8.06381 11.1656 7.98149 10.9308 7.98149 10.6191C7.98149 10.2285 8.04213 9.88999 8.16309 9.60372C8.28338 9.31742 8.44431 9.06638 8.64421 8.84989C8.84444 8.6334 9.11412 8.37656 9.45394 8.07875C9.75175 7.81821 9.9669 7.62172 10.0994 7.48922C10.2322 7.35643 10.3437 7.20871 10.4341 7.04607C10.5253 6.8831 10.57 6.70658 10.57 6.51585C10.57 6.14352 10.4321 5.82979 10.155 5.574C9.87817 5.3182 9.52105 5.19012 9.08365 5.19012C8.57173 5.19012 8.19498 5.3192 7.95306 5.57737C7.71115 5.83554 7.50687 6.21567 7.33915 6.71813C7.18059 7.24397 6.88041 7.50685 6.43893 7.50685C6.17838 7.50685 5.95852 7.41503 5.77929 7.23139C5.6004 7.04774 5.51095 6.84888 5.51095 6.63477C5.51095 6.19295 5.65291 5.74505 5.93651 5.2914C6.22044 4.83775 6.63445 4.462 7.17889 4.16452C7.72298 3.86671 8.35828 3.71762 9.08365 3.71762C9.75821 3.71762 10.3535 3.84229 10.8698 4.09133C11.3862 4.34 11.7853 4.67849 12.0668 5.10671C12.348 5.53461 12.489 5.99981 12.489 6.50227C12.4896 6.89702 12.4093 7.24364 12.2488 7.54145Z" fill="white"/>
</g>
<defs>
<clipPath id="clip0_2546_3888">
<rect width="18" height="18" fill="white"/>
</clipPath>
</defs>
</svg>
