<svg width="20" height="19" viewBox="0 0 20 19" fill="none" xmlns="http://www.w3.org/2000/svg">
<g clip-path="url(#clip0_2546_3879)">
<path fill-rule="evenodd" clip-rule="evenodd" d="M10.198 0.899286C8.58963 0.840994 6.96469 1.31855 5.5618 2.3377C3.98615 3.48356 2.88501 5.17567 2.37781 7.06729C2.23775 7.04868 2.07002 7.05689 1.87087 7.11819C1.1273 7.3478 0.568053 8.0109 0.316593 8.59492C-0.00955037 9.356 -0.147099 10.3626 -0.00200661 11.4017C0.14208 12.4375 0.544164 13.2914 1.04708 13.8215C1.55151 14.3519 2.12107 14.5243 2.68686 14.3948C3.52925 14.1992 3.94692 14.0527 3.82899 13.1986L3.25792 9.05824C3.37309 6.81742 4.43903 4.70797 6.22188 3.41077C8.60823 1.67596 11.7369 1.78708 14.0131 3.68882C15.5966 5.0101 16.5159 6.98984 16.622 9.0681L16.2227 11.9644C15.332 14.6171 13.124 16.4545 10.5689 16.7153H8.86749C8.42844 16.7153 8.07489 17.1001 8.07489 17.5774V18.0322C8.07489 18.5098 8.42844 18.8945 8.86749 18.8945H11.0127C11.4515 18.8945 11.8035 18.5098 11.8035 18.0322V17.7944C13.7302 17.2826 15.412 15.9939 16.5071 14.1967L17.1943 14.3951C17.7536 14.553 18.3299 14.3519 18.8341 13.8218C19.337 13.2914 19.7389 12.4378 19.8832 11.402C20.0288 10.3628 19.8872 9.35791 19.5648 8.59519C19.2412 7.83247 18.7592 7.34807 18.2027 7.17429C17.9696 7.10122 17.7166 7.0744 17.4996 7.06729C17.0409 5.35684 16.0967 3.8013 14.7358 2.66556C13.3978 1.54816 11.8063 0.956757 10.198 0.899286Z" fill="white"/>
<path fill-rule="evenodd" clip-rule="evenodd" d="M12.7083 8.34918C13.2753 8.34918 13.735 8.84945 13.7363 9.46822C13.735 10.0854 13.2753 10.587 12.7083 10.587C12.1398 10.587 11.6788 10.0854 11.6788 9.46822C11.6788 8.84973 12.14 8.34918 12.7083 8.34918ZM9.93973 8.34918C10.508 8.34918 10.9677 8.84945 10.9677 9.46822C10.9677 10.0854 10.508 10.587 9.93973 10.587C9.37093 10.587 8.91126 10.0854 8.91126 9.46822C8.91126 8.84973 9.37093 8.34918 9.93973 8.34918ZM7.17216 8.34918C7.7392 8.34918 8.20013 8.84945 8.20013 9.46822C8.20013 10.0854 7.7392 10.587 7.17216 10.587C6.60386 10.587 6.14394 10.0854 6.14394 9.46822C6.14394 8.84973 6.60386 8.34918 7.17216 8.34918ZM9.93973 3.54297C6.92472 3.54297 4.49512 6.10015 4.49512 9.46822C4.49512 11.0859 5.05713 12.5155 5.9727 13.5645L5.64781 15.1496C5.54069 15.6713 5.87312 16.0221 6.30387 15.761L7.72613 14.8976C8.40205 15.217 9.14964 15.3935 9.93973 15.3935C12.9557 15.3935 15.3838 12.8379 15.3838 9.46822C15.3838 6.10015 12.9557 3.54297 9.93973 3.54297Z" fill="white"/>
</g>
<defs>
<clipPath id="clip0_2546_3879">
<rect width="20" height="19" fill="white"/>
</clipPath>
</defs>
</svg>
