<svg width="18" height="18" viewBox="0 0 18 18" fill="none" xmlns="http://www.w3.org/2000/svg">
<g clip-path="url(#clip0_2546_3858)">
<path fill-rule="evenodd" clip-rule="evenodd" d="M6.11983 14.0272H2.63247C2.1355 14.0272 1.72882 13.6206 1.72882 13.1236V4.87643C1.72882 4.37946 2.13547 3.97281 2.63247 3.97281H3.02664L12.5517 13.4979V16.718C12.5517 17.1995 12.3026 17.6124 11.8767 17.8369C11.4507 18.0613 10.941 18.0707 10.5722 17.7613L6.11983 14.0272ZM1.80071 1.05002L15.3504 14.5997C15.5847 14.834 15.9645 14.834 16.1988 14.5997C16.4331 14.3654 16.4331 13.9856 16.1988 13.7513L12.5517 10.1041V1.28205C12.5517 0.800622 12.3025 0.387677 11.8766 0.163204C11.4506 -0.0613037 10.941 -0.0706201 10.5721 0.238755L6.28327 3.8357L2.64914 0.20156C2.41486 -0.0327216 2.03499 -0.0327216 1.80071 0.20156C1.56643 0.435841 1.56643 0.815739 1.80071 1.05002Z" fill="white"/>
</g>
<defs>
<clipPath id="clip0_2546_3858">
<rect width="18" height="18" fill="white"/>
</clipPath>
</defs>
</svg>
