<svg width="18" height="18" viewBox="0 0 18 18" fill="none" xmlns="http://www.w3.org/2000/svg">
<g clip-path="url(#clip0_2546_3864)">
<path fill-rule="evenodd" clip-rule="evenodd" d="M4.39102 14.0273H0.903656C0.406688 14.0273 0 13.6206 0 13.1236V4.87643C0 4.37946 0.406652 3.97281 0.903656 3.97281H4.39095L8.84331 0.238755C9.2122 -0.0706201 9.72186 -0.0613037 10.1478 0.163204C10.5737 0.387677 10.8229 0.800622 10.8229 1.28205V9.00001V16.718C10.8229 17.1994 10.5738 17.6123 10.1478 17.8368C9.72186 18.0613 9.21217 18.0706 8.84327 17.7613L4.39102 14.0273ZM12.2883 5.66034C12.054 5.42606 12.054 5.0462 12.2883 4.81191C12.5226 4.57763 12.9024 4.57763 13.1367 4.81191C14.2933 5.96848 14.8716 7.48428 14.8716 9.00004C14.8716 10.5158 14.2933 12.0316 13.1367 13.1882C12.9024 13.4225 12.5226 13.4225 12.2883 13.1882C12.054 12.9539 12.054 12.574 12.2883 12.3397C13.2105 11.4176 13.6716 10.2088 13.6716 9.00008C13.6716 7.7913 13.2105 6.58252 12.2883 5.66034ZM14.5004 3.44824C16.0335 4.98126 16.8 6.99065 16.8 9.00004C16.8 11.0094 16.0335 13.0188 14.5004 14.5518C14.2662 14.7861 14.2662 15.166 14.5004 15.4003C14.7347 15.6346 15.1146 15.6346 15.3489 15.4002C17.1163 13.6329 18 11.3164 18 9.00001C18 6.68363 17.1163 4.36719 15.3489 2.59974C15.1146 2.36546 14.7347 2.36546 14.5004 2.59974C14.2662 2.83406 14.2662 3.21392 14.5004 3.44824Z" fill="white"/>
</g>
<defs>
<clipPath id="clip0_2546_3864">
<rect width="18" height="18" fill="white"/>
</clipPath>
</defs>
</svg>
